<svg width="1200" height="630" viewBox="0 0 1200 630" xmlns="http://www.w3.org/2000/svg">
  <defs>
    <radialGradient id="glow" cx="50%" cy="50%" r="60%">
      <stop offset="0%" stop-color="#3b82f6" stop-opacity="0.08"/>
      <stop offset="100%" stop-color="#0b0d11" stop-opacity="0"/>
    </radialGradient>
    <linearGradient id="highlight" x1="0%" y1="0%" x2="100%" y2="100%">
      <stop offset="0%" stop-color="#3b82f6"/>
      <stop offset="100%" stop-color="#22d3ee"/>
    </linearGradient>
    <pattern id="grid" width="40" height="40" patternUnits="userSpaceOnUse">
      <path d="M 40 0 L 0 0 0 40" fill="none" stroke="rgba(255,255,255,0.03)" stroke-width="1"/>
    </pattern>
  </defs>

  <!-- Background -->
  <rect width="1200" height="630" fill="#0b0d11"/>
  <rect width="1200" height="630" fill="url(#grid)" opacity="0.6"/>
  <rect width="1200" height="630" fill="url(#glow)"/>

  <!-- Logo -->
  <g transform="translate(80, 80)">
    <rect width="36" height="36" rx="8" fill="#3b82f6"/>
    <line x1="11" y1="13" x2="25" y2="13" stroke="white" stroke-width="2" stroke-linecap="round"/>
    <line x1="11" y1="18" x2="21" y2="18" stroke="white" stroke-width="2" stroke-linecap="round"/>
    <line x1="11" y1="23" x2="23" y2="23" stroke="white" stroke-width="2" stroke-linecap="round"/>
  </g>

  <!-- Brand text -->
  <text x="126" y="105" font-family="Inter, -apple-system, sans-serif" font-size="18" font-weight="600" fill="#e8eaed">FieldTrip</text>
  <text x="218" y="105" font-family="Inter, -apple-system, sans-serif" font-size="18" font-weight="400" fill="#4a4f63">by EventCatalog</text>

  <!-- Title -->
  <text x="80" y="210" font-family="Inter, -apple-system, sans-serif" font-size="52" font-weight="700" fill="#e8eaed" letter-spacing="-1.5">Search every field across</text>
  <text x="80" y="272" font-family="Inter, -apple-system, sans-serif" font-size="52" font-weight="700" fill="url(#highlight)" letter-spacing="-1.5">all your schemas.</text>

  <!-- Subtitle -->
  <text x="80" y="330" font-family="Inter, -apple-system, sans-serif" font-size="18" fill="#8b8fa3">OpenAPI, AsyncAPI, Protobuf, Avro, and JSON Schema</text>
  <text x="80" y="356" font-family="Inter, -apple-system, sans-serif" font-size="18" fill="#8b8fa3">— indexed and visualized instantly.</text>

  <!-- Schema chips -->
  <g transform="translate(80, 400)">
    <!-- OpenAPI -->
    <rect x="0" y="0" width="98" height="30" rx="15" fill="rgba(255,255,255,0.04)" stroke="rgba(255,255,255,0.08)" stroke-width="1"/>
    <circle cx="18" cy="15" r="4" fill="#3b82f6"/>
    <text x="30" y="20" font-family="Inter, -apple-system, sans-serif" font-size="12" font-weight="500" fill="#8b8fa3">OpenAPI</text>

    <!-- AsyncAPI -->
    <rect x="110" y="0" width="104" height="30" rx="15" fill="rgba(255,255,255,0.04)" stroke="rgba(255,255,255,0.08)" stroke-width="1"/>
    <circle cx="128" cy="15" r="4" fill="#8b5cf6"/>
    <text x="140" y="20" font-family="Inter, -apple-system, sans-serif" font-size="12" font-weight="500" fill="#8b8fa3">AsyncAPI</text>

    <!-- Protobuf -->
    <rect x="226" y="0" width="96" height="30" rx="15" fill="rgba(255,255,255,0.04)" stroke="rgba(255,255,255,0.08)" stroke-width="1"/>
    <circle cx="244" cy="15" r="4" fill="#10b981"/>
    <text x="256" y="20" font-family="Inter, -apple-system, sans-serif" font-size="12" font-weight="500" fill="#8b8fa3">Protobuf</text>

    <!-- Avro -->
    <rect x="334" y="0" width="72" height="30" rx="15" fill="rgba(255,255,255,0.04)" stroke="rgba(255,255,255,0.08)" stroke-width="1"/>
    <circle cx="352" cy="15" r="4" fill="#f59e0b"/>
    <text x="364" y="20" font-family="Inter, -apple-system, sans-serif" font-size="12" font-weight="500" fill="#8b8fa3">Avro</text>

    <!-- JSON Schema -->
    <rect x="418" y="0" width="116" height="30" rx="15" fill="rgba(255,255,255,0.04)" stroke="rgba(255,255,255,0.08)" stroke-width="1"/>
    <circle cx="436" cy="15" r="4" fill="#6366f1"/>
    <text x="448" y="20" font-family="Inter, -apple-system, sans-serif" font-size="12" font-weight="500" fill="#8b8fa3">JSON Schema</text>
  </g>

  <!-- Install command -->
  <rect x="80" y="470" width="420" height="44" rx="8" fill="#12151b" stroke="rgba(255,255,255,0.08)" stroke-width="1"/>
  <text x="100" y="498" font-family="SF Mono, Fira Code, Cascadia Code, monospace" font-size="14" fill="#4a4f63">$</text>
  <text x="120" y="498" font-family="SF Mono, Fira Code, Cascadia Code, monospace" font-size="14" fill="#34d399">npx @eventcatalog/fieldtrip --dir ./schemas</text>

  <!-- MIT badge -->
  <text x="80" y="548" font-family="Inter, -apple-system, sans-serif" font-size="13" fill="#4a4f63">Open source · MIT License</text>

  <!-- Decorative dots (right side) representing the matrix -->
  <g transform="translate(700, 120)" opacity="0.7">
    <!-- Matrix-like pattern -->
    <g>
      <!-- Row labels area -->
      <rect x="0" y="0" width="460" height="400" rx="10" fill="#12151b" stroke="rgba(255,255,255,0.06)" stroke-width="1"/>

      <!-- Header dots -->
      <g transform="translate(120, 20)">
        <rect x="0" y="0" width="6" height="40" rx="2" fill="#3b82f6" opacity="0.5"/>
        <rect x="14" y="8" width="6" height="32" rx="2" fill="#8b5cf6" opacity="0.5"/>
        <rect x="28" y="4" width="6" height="36" rx="2" fill="#10b981" opacity="0.5"/>
        <rect x="42" y="12" width="6" height="28" rx="2" fill="#f59e0b" opacity="0.5"/>
        <rect x="56" y="0" width="6" height="40" rx="2" fill="#3b82f6" opacity="0.5"/>
        <rect x="70" y="6" width="6" height="34" rx="2" fill="#8b5cf6" opacity="0.5"/>
        <rect x="84" y="10" width="6" height="30" rx="2" fill="#6366f1" opacity="0.5"/>
        <rect x="98" y="2" width="6" height="38" rx="2" fill="#10b981" opacity="0.5"/>
        <rect x="112" y="8" width="6" height="32" rx="2" fill="#f59e0b" opacity="0.5"/>
        <rect x="126" y="4" width="6" height="36" rx="2" fill="#3b82f6" opacity="0.5"/>
        <rect x="140" y="14" width="6" height="26" rx="2" fill="#8b5cf6" opacity="0.5"/>
        <rect x="154" y="6" width="6" height="34" rx="2" fill="#10b981" opacity="0.5"/>
        <rect x="168" y="0" width="6" height="40" rx="2" fill="#6366f1" opacity="0.5"/>
        <rect x="182" y="10" width="6" height="30" rx="2" fill="#f59e0b" opacity="0.5"/>
        <rect x="196" y="4" width="6" height="36" rx="2" fill="#3b82f6" opacity="0.5"/>
        <rect x="210" y="8" width="6" height="32" rx="2" fill="#8b5cf6" opacity="0.5"/>
        <rect x="224" y="2" width="6" height="38" rx="2" fill="#10b981" opacity="0.5"/>
        <rect x="238" y="12" width="6" height="28" rx="2" fill="#6366f1" opacity="0.5"/>
        <rect x="252" y="6" width="6" height="34" rx="2" fill="#f59e0b" opacity="0.5"/>
        <rect x="266" y="0" width="6" height="40" rx="2" fill="#3b82f6" opacity="0.5"/>
        <rect x="280" y="8" width="6" height="32" rx="2" fill="#8b5cf6" opacity="0.4"/>
        <rect x="294" y="4" width="6" height="36" rx="2" fill="#10b981" opacity="0.4"/>
        <rect x="308" y="14" width="6" height="26" rx="2" fill="#6366f1" opacity="0.3"/>
      </g>

      <!-- Row labels -->
      <text x="16" y="88" font-family="SF Mono, monospace" font-size="10" fill="#8b8fa3">customerId</text>
      <text x="16" y="108" font-family="SF Mono, monospace" font-size="10" fill="#8b8fa3">orderId</text>
      <text x="16" y="128" font-family="SF Mono, monospace" font-size="10" fill="#8b8fa3">name</text>
      <text x="16" y="148" font-family="SF Mono, monospace" font-size="10" fill="#8b8fa3">status</text>
      <text x="16" y="168" font-family="SF Mono, monospace" font-size="10" fill="#8b8fa3">email</text>
      <text x="16" y="188" font-family="SF Mono, monospace" font-size="10" fill="#8b8fa3">createdAt</text>
      <text x="16" y="208" font-family="SF Mono, monospace" font-size="10" fill="#8b8fa3">updatedAt</text>
      <text x="16" y="228" font-family="SF Mono, monospace" font-size="10" fill="#8b8fa3">amount</text>
      <text x="16" y="248" font-family="SF Mono, monospace" font-size="10" fill="#8b8fa3">currency</text>
      <text x="16" y="268" font-family="SF Mono, monospace" font-size="10" fill="#8b8fa3">userId</text>
      <text x="16" y="288" font-family="SF Mono, monospace" font-size="10" fill="#8b8fa3">type</text>
      <text x="16" y="308" font-family="SF Mono, monospace" font-size="10" fill="#8b8fa3">description</text>
      <text x="16" y="328" font-family="SF Mono, monospace" font-size="10" fill="#8b8fa3">timestamp</text>
      <text x="16" y="348" font-family="SF Mono, monospace" font-size="10" fill="#8b8fa3">productId</text>
      <text x="16" y="368" font-family="SF Mono, monospace" font-size="10" fill="#8b8fa3">quantity</text>
      <text x="16" y="388" font-family="SF Mono, monospace" font-size="10" fill="#8b8fa3">price</text>

      <!-- Matrix cells (green=required, blue=optional, empty=absent) -->
      <g transform="translate(120, 75)">
        <!-- Row 1: customerId -->
        <rect x="0" y="0" width="10" height="14" rx="2" fill="#22c55e" opacity="0.6"/>
        <rect x="14" y="0" width="10" height="14" rx="2" fill="#22c55e" opacity="0.6"/>
        <rect x="42" y="0" width="10" height="14" rx="2" fill="#3b82f6" opacity="0.5"/>
        <rect x="56" y="0" width="10" height="14" rx="2" fill="#22c55e" opacity="0.6"/>
        <rect x="84" y="0" width="10" height="14" rx="2" fill="#3b82f6" opacity="0.5"/>
        <rect x="112" y="0" width="10" height="14" rx="2" fill="#22c55e" opacity="0.6"/>
        <rect x="140" y="0" width="10" height="14" rx="2" fill="#22c55e" opacity="0.6"/>
        <rect x="168" y="0" width="10" height="14" rx="2" fill="#3b82f6" opacity="0.5"/>
        <rect x="196" y="0" width="10" height="14" rx="2" fill="#22c55e" opacity="0.6"/>
        <rect x="224" y="0" width="10" height="14" rx="2" fill="#3b82f6" opacity="0.5"/>
        <rect x="252" y="0" width="10" height="14" rx="2" fill="#22c55e" opacity="0.6"/>

        <!-- Row 2: orderId -->
        <rect x="0" y="20" width="10" height="14" rx="2" fill="#22c55e" opacity="0.6"/>
        <rect x="28" y="20" width="10" height="14" rx="2" fill="#22c55e" opacity="0.6"/>
        <rect x="42" y="20" width="10" height="14" rx="2" fill="#22c55e" opacity="0.6"/>
        <rect x="70" y="20" width="10" height="14" rx="2" fill="#3b82f6" opacity="0.5"/>
        <rect x="98" y="20" width="10" height="14" rx="2" fill="#22c55e" opacity="0.6"/>
        <rect x="154" y="20" width="10" height="14" rx="2" fill="#3b82f6" opacity="0.5"/>
        <rect x="182" y="20" width="10" height="14" rx="2" fill="#22c55e" opacity="0.6"/>
        <rect x="238" y="20" width="10" height="14" rx="2" fill="#22c55e" opacity="0.6"/>
        <rect x="266" y="20" width="10" height="14" rx="2" fill="#3b82f6" opacity="0.5"/>

        <!-- Row 3: name -->
        <rect x="0" y="40" width="10" height="14" rx="2" fill="#3b82f6" opacity="0.5"/>
        <rect x="14" y="40" width="10" height="14" rx="2" fill="#22c55e" opacity="0.6"/>
        <rect x="56" y="40" width="10" height="14" rx="2" fill="#22c55e" opacity="0.6"/>
        <rect x="84" y="40" width="10" height="14" rx="2" fill="#3b82f6" opacity="0.5"/>
        <rect x="126" y="40" width="10" height="14" rx="2" fill="#22c55e" opacity="0.6"/>
        <rect x="168" y="40" width="10" height="14" rx="2" fill="#3b82f6" opacity="0.5"/>
        <rect x="210" y="40" width="10" height="14" rx="2" fill="#22c55e" opacity="0.6"/>
        <rect x="252" y="40" width="10" height="14" rx="2" fill="#3b82f6" opacity="0.5"/>
        <rect x="280" y="40" width="10" height="14" rx="2" fill="#22c55e" opacity="0.6"/>

        <!-- Row 4: status -->
        <rect x="0" y="60" width="10" height="14" rx="2" fill="#22c55e" opacity="0.6"/>
        <rect x="28" y="60" width="10" height="14" rx="2" fill="#3b82f6" opacity="0.5"/>
        <rect x="42" y="60" width="10" height="14" rx="2" fill="#22c55e" opacity="0.6"/>
        <rect x="98" y="60" width="10" height="14" rx="2" fill="#3b82f6" opacity="0.5"/>
        <rect x="140" y="60" width="10" height="14" rx="2" fill="#22c55e" opacity="0.6"/>
        <rect x="196" y="60" width="10" height="14" rx="2" fill="#3b82f6" opacity="0.5"/>
        <rect x="224" y="60" width="10" height="14" rx="2" fill="#22c55e" opacity="0.6"/>
        <rect x="294" y="60" width="10" height="14" rx="2" fill="#3b82f6" opacity="0.5"/>

        <!-- Row 5: email -->
        <rect x="14" y="80" width="10" height="14" rx="2" fill="#22c55e" opacity="0.6"/>
        <rect x="56" y="80" width="10" height="14" rx="2" fill="#22c55e" opacity="0.6"/>
        <rect x="112" y="80" width="10" height="14" rx="2" fill="#3b82f6" opacity="0.5"/>
        <rect x="168" y="80" width="10" height="14" rx="2" fill="#22c55e" opacity="0.6"/>
        <rect x="238" y="80" width="10" height="14" rx="2" fill="#3b82f6" opacity="0.5"/>
        <rect x="280" y="80" width="10" height="14" rx="2" fill="#22c55e" opacity="0.6"/>

        <!-- Row 6: createdAt -->
        <rect x="0" y="100" width="10" height="14" rx="2" fill="#3b82f6" opacity="0.5"/>
        <rect x="14" y="100" width="10" height="14" rx="2" fill="#3b82f6" opacity="0.5"/>
        <rect x="28" y="100" width="10" height="14" rx="2" fill="#3b82f6" opacity="0.5"/>
        <rect x="42" y="100" width="10" height="14" rx="2" fill="#3b82f6" opacity="0.5"/>
        <rect x="56" y="100" width="10" height="14" rx="2" fill="#3b82f6" opacity="0.5"/>
        <rect x="70" y="100" width="10" height="14" rx="2" fill="#3b82f6" opacity="0.5"/>
        <rect x="84" y="100" width="10" height="14" rx="2" fill="#3b82f6" opacity="0.5"/>
        <rect x="98" y="100" width="10" height="14" rx="2" fill="#3b82f6" opacity="0.5"/>
        <rect x="112" y="100" width="10" height="14" rx="2" fill="#3b82f6" opacity="0.5"/>
        <rect x="126" y="100" width="10" height="14" rx="2" fill="#3b82f6" opacity="0.5"/>
        <rect x="140" y="100" width="10" height="14" rx="2" fill="#3b82f6" opacity="0.5"/>
        <rect x="154" y="100" width="10" height="14" rx="2" fill="#3b82f6" opacity="0.5"/>
        <rect x="168" y="100" width="10" height="14" rx="2" fill="#3b82f6" opacity="0.5"/>
        <rect x="182" y="100" width="10" height="14" rx="2" fill="#3b82f6" opacity="0.5"/>
        <rect x="196" y="100" width="10" height="14" rx="2" fill="#3b82f6" opacity="0.4"/>
        <rect x="210" y="100" width="10" height="14" rx="2" fill="#3b82f6" opacity="0.4"/>
        <rect x="224" y="100" width="10" height="14" rx="2" fill="#3b82f6" opacity="0.3"/>
        <rect x="238" y="100" width="10" height="14" rx="2" fill="#3b82f6" opacity="0.3"/>
        <rect x="252" y="100" width="10" height="14" rx="2" fill="#3b82f6" opacity="0.3"/>
        <rect x="266" y="100" width="10" height="14" rx="2" fill="#3b82f6" opacity="0.3"/>
        <rect x="280" y="100" width="10" height="14" rx="2" fill="#3b82f6" opacity="0.3"/>

        <!-- Row 7: updatedAt -->
        <rect x="0" y="120" width="10" height="14" rx="2" fill="#3b82f6" opacity="0.5"/>
        <rect x="14" y="120" width="10" height="14" rx="2" fill="#3b82f6" opacity="0.5"/>
        <rect x="28" y="120" width="10" height="14" rx="2" fill="#3b82f6" opacity="0.5"/>
        <rect x="42" y="120" width="10" height="14" rx="2" fill="#3b82f6" opacity="0.5"/>
        <rect x="56" y="120" width="10" height="14" rx="2" fill="#3b82f6" opacity="0.5"/>
        <rect x="70" y="120" width="10" height="14" rx="2" fill="#3b82f6" opacity="0.5"/>
        <rect x="84" y="120" width="10" height="14" rx="2" fill="#3b82f6" opacity="0.5"/>
        <rect x="98" y="120" width="10" height="14" rx="2" fill="#3b82f6" opacity="0.5"/>
        <rect x="112" y="120" width="10" height="14" rx="2" fill="#3b82f6" opacity="0.5"/>
        <rect x="126" y="120" width="10" height="14" rx="2" fill="#3b82f6" opacity="0.4"/>
        <rect x="140" y="120" width="10" height="14" rx="2" fill="#3b82f6" opacity="0.4"/>
        <rect x="154" y="120" width="10" height="14" rx="2" fill="#3b82f6" opacity="0.4"/>
        <rect x="168" y="120" width="10" height="14" rx="2" fill="#3b82f6" opacity="0.3"/>

        <!-- Row 8: amount -->
        <rect x="0" y="140" width="10" height="14" rx="2" fill="#22c55e" opacity="0.6"/>
        <rect x="28" y="140" width="10" height="14" rx="2" fill="#22c55e" opacity="0.6"/>
        <rect x="70" y="140" width="10" height="14" rx="2" fill="#3b82f6" opacity="0.5"/>
        <rect x="126" y="140" width="10" height="14" rx="2" fill="#22c55e" opacity="0.6"/>
        <rect x="182" y="140" width="10" height="14" rx="2" fill="#3b82f6" opacity="0.5"/>

        <!-- Row 9: currency -->
        <rect x="0" y="160" width="10" height="14" rx="2" fill="#3b82f6" opacity="0.5"/>
        <rect x="28" y="160" width="10" height="14" rx="2" fill="#3b82f6" opacity="0.5"/>
        <rect x="70" y="160" width="10" height="14" rx="2" fill="#3b82f6" opacity="0.5"/>
        <rect x="126" y="160" width="10" height="14" rx="2" fill="#3b82f6" opacity="0.5"/>

        <!-- Row 10: userId -->
        <rect x="14" y="180" width="10" height="14" rx="2" fill="#22c55e" opacity="0.6"/>
        <rect x="42" y="180" width="10" height="14" rx="2" fill="#22c55e" opacity="0.6"/>
        <rect x="84" y="180" width="10" height="14" rx="2" fill="#3b82f6" opacity="0.5"/>
        <rect x="112" y="180" width="10" height="14" rx="2" fill="#22c55e" opacity="0.6"/>
        <rect x="154" y="180" width="10" height="14" rx="2" fill="#3b82f6" opacity="0.5"/>
        <rect x="196" y="180" width="10" height="14" rx="2" fill="#22c55e" opacity="0.6"/>
        <rect x="238" y="180" width="10" height="14" rx="2" fill="#22c55e" opacity="0.6"/>
        <rect x="266" y="180" width="10" height="14" rx="2" fill="#3b82f6" opacity="0.5"/>

        <!-- Row 11: type -->
        <rect x="0" y="200" width="10" height="14" rx="2" fill="#3b82f6" opacity="0.5"/>
        <rect x="42" y="200" width="10" height="14" rx="2" fill="#22c55e" opacity="0.6"/>
        <rect x="70" y="200" width="10" height="14" rx="2" fill="#3b82f6" opacity="0.5"/>
        <rect x="98" y="200" width="10" height="14" rx="2" fill="#22c55e" opacity="0.6"/>
        <rect x="140" y="200" width="10" height="14" rx="2" fill="#3b82f6" opacity="0.5"/>
        <rect x="210" y="200" width="10" height="14" rx="2" fill="#22c55e" opacity="0.6"/>

        <!-- Row 12-16: sparser -->
        <rect x="14" y="220" width="10" height="14" rx="2" fill="#3b82f6" opacity="0.4"/>
        <rect x="56" y="220" width="10" height="14" rx="2" fill="#3b82f6" opacity="0.4"/>
        <rect x="112" y="220" width="10" height="14" rx="2" fill="#3b82f6" opacity="0.4"/>
        <rect x="168" y="220" width="10" height="14" rx="2" fill="#22c55e" opacity="0.5"/>
        <rect x="252" y="220" width="10" height="14" rx="2" fill="#3b82f6" opacity="0.3"/>

        <rect x="0" y="240" width="10" height="14" rx="2" fill="#22c55e" opacity="0.5"/>
        <rect x="42" y="240" width="10" height="14" rx="2" fill="#3b82f6" opacity="0.4"/>
        <rect x="84" y="240" width="10" height="14" rx="2" fill="#22c55e" opacity="0.5"/>
        <rect x="154" y="240" width="10" height="14" rx="2" fill="#3b82f6" opacity="0.3"/>
        <rect x="224" y="240" width="10" height="14" rx="2" fill="#22c55e" opacity="0.4"/>

        <rect x="28" y="260" width="10" height="14" rx="2" fill="#22c55e" opacity="0.5"/>
        <rect x="70" y="260" width="10" height="14" rx="2" fill="#22c55e" opacity="0.5"/>
        <rect x="112" y="260" width="10" height="14" rx="2" fill="#3b82f6" opacity="0.4"/>
        <rect x="196" y="260" width="10" height="14" rx="2" fill="#22c55e" opacity="0.4"/>

        <rect x="0" y="280" width="10" height="14" rx="2" fill="#3b82f6" opacity="0.4"/>
        <rect x="28" y="280" width="10" height="14" rx="2" fill="#22c55e" opacity="0.5"/>
        <rect x="56" y="280" width="10" height="14" rx="2" fill="#3b82f6" opacity="0.3"/>
        <rect x="140" y="280" width="10" height="14" rx="2" fill="#22c55e" opacity="0.4"/>
        <rect x="182" y="280" width="10" height="14" rx="2" fill="#3b82f6" opacity="0.3"/>
      </g>
    </g>
  </g>

  <!-- Fade right edge -->
  <rect x="1060" y="0" width="140" height="630" fill="url(#fadeRight)"/>
  <defs>
    <linearGradient id="fadeRight" x1="0%" y1="0%" x2="100%" y2="0%">
      <stop offset="0%" stop-color="#0b0d11" stop-opacity="0"/>
      <stop offset="100%" stop-color="#0b0d11" stop-opacity="0.8"/>
    </linearGradient>
  </defs>
</svg>
